<svg id="Capa_1" data-name="Capa 1" xmlns="http://www.w3.org/2000/svg" xmlns:xlink="http://www.w3.org/1999/xlink" viewBox="0 0 512 415.11"><defs><style>.cls-1{fill:url(#linear-gradient);}.cls-2{fill:url(#linear-gradient-2);}.cls-3{fill:url(#linear-gradient-3);}.cls-4{fill:url(#linear-gradient-4);}.cls-5{fill:url(#linear-gradient-5);}.cls-6{fill:url(#linear-gradient-6);}.cls-7{fill:url(#linear-gradient-7);}.cls-8{fill:url(#linear-gradient-8);}</style><linearGradient id="linear-gradient" x1="256" y1="137.14" x2="256" y2="152.15" gradientUnits="userSpaceOnUse"><stop offset="0" stop-color="#002a6b"/><stop offset="1" stop-color="#1465e1"/></linearGradient><linearGradient id="linear-gradient-2" x1="256" y1="218.87" x2="256" y2="233.88" xlink:href="#linear-gradient"/><linearGradient id="linear-gradient-3" x1="256" y1="271.91" x2="256" y2="286.92" xlink:href="#linear-gradient"/><linearGradient id="linear-gradient-4" x1="293.04" y1="177.84" x2="293.04" y2="192.85" xlink:href="#linear-gradient"/><linearGradient id="linear-gradient-5" x1="129.8" y1="177.84" x2="129.8" y2="192.85" xlink:href="#linear-gradient"/><linearGradient id="linear-gradient-6" x1="256" y1="85.91" x2="256" y2="370.12" xlink:href="#linear-gradient"/><linearGradient id="linear-gradient-7" x1="256" y1="48.44" x2="256" y2="463.55" xlink:href="#linear-gradient"/><linearGradient id="linear-gradient-8" x1="401.78" y1="287.31" x2="401.78" y2="380.58" xlink:href="#linear-gradient"/></defs><title>winner</title><path class="cls-1" d="M401.78,137.14H110.22a7.51,7.51,0,0,0,0,15H401.78a7.51,7.51,0,0,0,0-15Z" transform="translate(0 -48.44)"/><path class="cls-2" d="M401.78,218.87H110.22a7.51,7.51,0,0,0,0,15H401.78a7.51,7.51,0,0,0,0-15Z" transform="translate(0 -48.44)"/><path class="cls-3" d="M306.19,271.91H205.81a7.51,7.51,0,1,0,0,15H306.19a7.51,7.51,0,1,0,0-15Z" transform="translate(0 -48.44)"/><path class="cls-4" d="M401.78,177.84H184.3a7.51,7.51,0,0,0,0,15H401.78a7.51,7.51,0,0,0,0-15Z" transform="translate(0 -48.44)"/><path class="cls-5" d="M149.38,177.84H110.22a7.51,7.51,0,0,0,0,15h39.16a7.51,7.51,0,1,0,0-15Z" transform="translate(0 -48.44)"/><path class="cls-6" d="M473.25,124.46a9.21,9.21,0,0,0-6.52-2.66h0a28.31,28.31,0,0,1-28.34-27.08,9.23,9.23,0,0,0-9.24-8.81H81.08a9.22,9.22,0,0,0-9.24,8.81,28.56,28.56,0,0,1-27.05,27.05A9.21,9.21,0,0,0,36,131V325a9.21,9.21,0,0,0,8.8,9.23,28.56,28.56,0,0,1,27.05,27.05,9.22,9.22,0,0,0,9.24,8.81H302.65a7.51,7.51,0,1,0,0-15H86.24A43.09,43.09,0,0,0,51,319.86V136.17a43.09,43.09,0,0,0,35.24-35.25H424a43.28,43.28,0,0,0,37,35.51V263.9a7.51,7.51,0,0,0,15,0V131.05A9.18,9.18,0,0,0,473.25,124.46Z" transform="translate(0 -48.44)"/><path class="cls-7" d="M491.17,48.44H20.83A20.86,20.86,0,0,0,0,69.28V386.75a20.85,20.85,0,0,0,20.83,20.83H335.88L324.73,431a8.92,8.92,0,0,0,9.46,12.64L355,440.26l11.58,19a8.91,8.91,0,0,0,7.61,4.27h.45a8.88,8.88,0,0,0,7.6-5.06l20.12-42.18,20.13,42.17a8.91,8.91,0,0,0,7.59,5.07h.46a8.91,8.91,0,0,0,7.61-4.27l11.58-19,20.77,3.34A8.92,8.92,0,0,0,479.92,431l-11.15-23.37h22.39A20.87,20.87,0,0,0,512,386.75V69.28A20.86,20.86,0,0,0,491.17,48.44ZM373.5,441.85,365.64,429a8.88,8.88,0,0,0-9-4.17l-13.34,2.15,14.05-29.44a26.71,26.71,0,0,0,21.61,7.93,11.77,11.77,0,0,1,7.9,2.12,25.86,25.86,0,0,0,2.33,1.46Zm30.61-44.51H404a11.6,11.6,0,0,1-3.43,0h-.08a11.65,11.65,0,0,1-5-2A26.79,26.79,0,0,0,380,390.37q-1.26,0-2.52.12a11.72,11.72,0,0,1-11.76-6.79,26.84,26.84,0,0,0-3.46-5.58c-.06-.08-.13-.16-.19-.25l-.22-.27a4,4,0,0,0-.28-.3,26.6,26.6,0,0,0-9-6.79,11.73,11.73,0,0,1-6.79-11.76,26.74,26.74,0,0,0-4.82-18,11.75,11.75,0,0,1,0-13.59,26.73,26.73,0,0,0,4.83-18,11.73,11.73,0,0,1,6.79-11.76,26.73,26.73,0,0,0,13.19-13.18,11.73,11.73,0,0,1,11.76-6.8,26.74,26.74,0,0,0,18-4.82,11.73,11.73,0,0,1,13.59,0,26.78,26.78,0,0,0,18,4.82,11.72,11.72,0,0,1,11.76,6.8,26.73,26.73,0,0,0,13.19,13.18,11.73,11.73,0,0,1,6.79,11.76,26.73,26.73,0,0,0,4.82,18,11.73,11.73,0,0,1,0,13.59,26.8,26.8,0,0,0-4.82,18,11.72,11.72,0,0,1-6.8,11.76,26.8,26.8,0,0,0-9,6.77c-.1.11-.2.21-.29.33s-.13.15-.2.23l-.22.29a26.73,26.73,0,0,0-3.45,5.57,11.73,11.73,0,0,1-11.76,6.79,26.81,26.81,0,0,0-18,4.82A11.69,11.69,0,0,1,404.11,397.34ZM448,424.79a8.88,8.88,0,0,0-9,4.17l-7.86,12.89L415.48,409a25.86,25.86,0,0,0,2.33-1.46,11.73,11.73,0,0,1,7.9-2.12,26.74,26.74,0,0,0,21.61-7.93l14.05,29.43Zm49-38a5.83,5.83,0,0,1-5.82,5.83H461.6l-3.87-8.11c.2-.11.39-.22.59-.31a26.75,26.75,0,0,0,15.49-26.83,11.77,11.77,0,0,1,2.12-7.9,26.74,26.74,0,0,0,0-31,11.73,11.73,0,0,1-2.12-7.89,26.75,26.75,0,0,0-15.49-26.83,11.78,11.78,0,0,1-5.78-5.78,26.76,26.76,0,0,0-26.83-15.49,11.77,11.77,0,0,1-7.9-2.12,26.76,26.76,0,0,0-31,0,11.75,11.75,0,0,1-7.89,2.12A26.74,26.74,0,0,0,352.11,278a11.78,11.78,0,0,1-5.78,5.78,26.74,26.74,0,0,0-15.49,26.83,11.73,11.73,0,0,1-2.12,7.89,26.74,26.74,0,0,0,0,31,11.77,11.77,0,0,1,2.12,7.9,26.74,26.74,0,0,0,15.49,26.83c.2.09.39.2.59.3l-3.87,8.12H20.83A5.83,5.83,0,0,1,15,386.75V69.28a5.83,5.83,0,0,1,5.82-5.82H491.16A5.83,5.83,0,0,1,497,69.28V386.75Z" transform="translate(0 -48.44)"/><path class="cls-8" d="M401.78,287.31A46.64,46.64,0,1,0,448.41,334,46.69,46.69,0,0,0,401.78,287.31Zm0,78.26a31.63,31.63,0,1,1,31.62-31.63A31.67,31.67,0,0,1,401.78,365.57Z" transform="translate(0 -48.44)"/></svg>