<svg id="Layer_1" data-name="Layer 1" xmlns="http://www.w3.org/2000/svg" xmlns:xlink="http://www.w3.org/1999/xlink" viewBox="0 0 512 400.34"><defs><style>.cls-1{fill:url(#linear-gradient);}.cls-2{fill:url(#linear-gradient-2);}.cls-3{fill:url(#linear-gradient-3);}.cls-4{fill:url(#linear-gradient-4);}.cls-5{fill:url(#linear-gradient-5);}</style><linearGradient id="linear-gradient" x1="100" y1="366.34" x2="100" y2="426.34" gradientUnits="userSpaceOnUse"><stop offset="0" stop-color="#002a6b"/><stop offset="0.57" stop-color="#0c4db0"/><stop offset="1" stop-color="#1465e1"/></linearGradient><linearGradient id="linear-gradient-2" x1="327" y1="366.34" x2="327" y2="426.34" xlink:href="#linear-gradient"/><linearGradient id="linear-gradient-3" x1="432" y1="366.34" x2="432" y2="426.34" xlink:href="#linear-gradient"/><linearGradient id="linear-gradient-4" x1="256" y1="56" x2="256" y2="456.34" xlink:href="#linear-gradient"/><linearGradient id="linear-gradient-5" x1="175.48" y1="200.41" x2="175.48" y2="373.84" xlink:href="#linear-gradient"/></defs><title>trailer</title><path class="cls-1" d="M121.88,383.53a7.51,7.51,0,0,0-7.3,9.27A15,15,0,1,1,100,381.34a7.5,7.5,0,0,0,0-15,30,30,0,1,0,29.16,22.93A7.48,7.48,0,0,0,121.88,383.53Z" transform="translate(0 -56)"/><path class="cls-2" d="M347.11,383.74a7.52,7.52,0,0,0-5.53,9.06A15,15,0,1,1,327,381.34a7.5,7.5,0,0,0,0-15,30,30,0,1,0,29.16,22.94A7.49,7.49,0,0,0,347.11,383.74Z" transform="translate(0 -56)"/><path class="cls-3" d="M452.11,383.74a7.52,7.52,0,0,0-5.53,9.06A15,15,0,1,1,432,381.34a7.5,7.5,0,0,0,0-15,30,30,0,1,0,29.16,22.94A7.49,7.49,0,0,0,452.11,383.74Z" transform="translate(0 -56)"/><path class="cls-4" d="M489.5,336.34h-226V117.91a17.44,17.44,0,0,1,13.43-17A15,15,0,0,0,288.5,86.3V71a15,15,0,0,0-17.31-14.83,62.59,62.59,0,0,0-52.69,61.73h-20A60.1,60.1,0,0,0,139,170.41h-8a37.3,37.3,0,0,0-36.59,29.28L80,263.83H36a27.54,27.54,0,0,0-27.5,27.5v69A15,15,0,0,0,0,373.84v15a15,15,0,0,0,15,15H40.48a60,60,0,0,0,119,0h108a60,60,0,0,0,112,21.51,60,60,0,0,0,112-21.6A22.55,22.55,0,0,0,512,381.34v-22.5A22.52,22.52,0,0,0,489.5,336.34ZM273.5,71l-.05,15.29a32.4,32.4,0,0,0-24.95,31.61h-15A47.84,47.84,0,0,1,273.5,71Zm-233,317.83H15v-15H44.39A58.8,58.8,0,0,0,40.48,388.84ZM100,441.34a45,45,0,1,1,45-45A45.05,45.05,0,0,1,100,441.34Zm59.52-52.5a60,60,0,0,0-106.3-30H23.5V291.33A12.52,12.52,0,0,1,36,278.83H86A7.5,7.5,0,0,0,93.32,273l15.73-70a22.4,22.4,0,0,1,22-17.57h15a7.52,7.52,0,0,0,7.5-7.51,45,45,0,0,1,45-45h50v37.5H176a7.51,7.51,0,0,0,0,15h72.5V343.84a7.5,7.5,0,0,0,7.5,7.5h31.38a59.91,59.91,0,0,0-19.9,37.5ZM327,441.34a45,45,0,0,1,0-90h0a45,45,0,0,1,0,90Zm52.5-74a60.51,60.51,0,0,0-12.88-16h25.76A60.31,60.31,0,0,0,379.5,367.34Zm52.5,74a45,45,0,0,1,0-90h0a45,45,0,0,1,0,90Zm65-60a7.51,7.51,0,0,1-5.52,7.23,59.93,59.93,0,0,0-19.86-37.23H489.5a7.5,7.5,0,0,1,7.5,7.5Z" transform="translate(0 -56)"/><path class="cls-5" d="M236,358.84H208.54V207.91a7.5,7.5,0,0,0-7.5-7.5H129.22a7.5,7.5,0,0,0-7.32,5.86l-14.26,63.42a7.49,7.49,0,0,0,7.32,9.14h78.58v80H181.78a90.29,90.29,0,0,0-57.53-49.18v-8.33a7.5,7.5,0,0,0-15,0v14.24a7.53,7.53,0,0,0,6,7.35,75.75,75.75,0,0,1,54.62,46.18,7.54,7.54,0,0,0,7,4.76H236a7.5,7.5,0,0,0,0-15Zm-42.46-95H124.33l10.89-48.42h58.32Z" transform="translate(0 -56)"/></svg>