<svg id="Outline" xmlns="http://www.w3.org/2000/svg" xmlns:xlink="http://www.w3.org/1999/xlink" viewBox="0 0 479.97 368.29"><defs><style>.cls-1{fill:url(#linear-gradient);}.cls-2{fill:url(#linear-gradient-2);}.cls-3{fill:url(#linear-gradient-3);}.cls-4{fill:url(#linear-gradient-4);}.cls-5{fill:url(#linear-gradient-5);}.cls-6{fill:url(#linear-gradient-6);}.cls-7{fill:url(#linear-gradient-7);}.cls-8{fill:url(#linear-gradient-8);}.cls-9{fill:url(#linear-gradient-9);}</style><linearGradient id="linear-gradient" x1="120" y1="336" x2="120" y2="448" gradientUnits="userSpaceOnUse"><stop offset="0" stop-color="#002a6b"/><stop offset="1" stop-color="#1465e1"/></linearGradient><linearGradient id="linear-gradient-2" y1="368" y2="416" xlink:href="#linear-gradient"/><linearGradient id="linear-gradient-3" x1="424" y1="384" x2="424" y2="464" xlink:href="#linear-gradient"/><linearGradient id="linear-gradient-4" x1="407.97" y1="288" x2="407.97" y2="304" xlink:href="#linear-gradient"/><linearGradient id="linear-gradient-5" x1="256.01" y1="128" x2="256.01" y2="496.29" xlink:href="#linear-gradient"/><linearGradient id="linear-gradient-6" x1="400" y1="288" x2="400" y2="328" xlink:href="#linear-gradient"/><linearGradient id="linear-gradient-7" x1="368" y1="288" x2="368" y2="328" xlink:href="#linear-gradient"/><linearGradient id="linear-gradient-8" x1="336" y1="288" x2="336" y2="328" xlink:href="#linear-gradient"/><linearGradient id="linear-gradient-9" x1="248" y1="288" x2="248" y2="328" xlink:href="#linear-gradient"/></defs><title>tractor</title><path class="cls-1" d="M120,336a56,56,0,1,0,56,56A56,56,0,0,0,120,336Zm0,96a40,40,0,1,1,40-40A40,40,0,0,1,120,432Z" transform="translate(-16.03 -128)"/><path class="cls-2" d="M120,368a24,24,0,1,0,24,24A24,24,0,0,0,120,368Zm0,32a8,8,0,1,1,8-8A8,8,0,0,1,120,400Z" transform="translate(-16.03 -128)"/><path class="cls-3" d="M384,424a40,40,0,1,0,40-40A40,40,0,0,0,384,424Zm64,0a24,24,0,1,1-24-24A24,24,0,0,1,448,424Z" transform="translate(-16.03 -128)"/><circle class="cls-4" cx="407.97" cy="296" r="8"/><path class="cls-5" d="M464,364.2V328a72.07,72.07,0,0,0-72-72V184a8,8,0,0,0-8-8h-8V153.89a23.88,23.88,0,0,0-13.26-21.47,8,8,0,0,0-7.16,14.32,8,8,0,0,1,4.42,7.15V176h-8a8,8,0,0,0-8,8v72H286.24l-24.42-97.7A39.94,39.94,0,0,0,223,128H122.56a40,40,0,0,0-39.32,32.63l-2.6,13.9a8,8,0,0,0,15.63,3.4,3.73,3.73,0,0,0,.09-.46L99,163.58A24,24,0,0,1,122.56,144H223a24,24,0,0,1,23.28,18.18L255.75,200H240V184a8,8,0,0,0-16,0v40a8,8,0,0,0,16,0v-8h19.75l10,40H216a32,32,0,0,0-32-32H160V192a24,24,0,0,0-48,0v64H81.64l8.72-46.53a8,8,0,0,0-15.63-3.4,3.73,3.73,0,0,0-.09.46l-10.5,56a3.66,3.66,0,0,0,0,.74A6.26,6.26,0,0,0,64,264v40.5a104.53,104.53,0,0,0-33.6,35c-.13.19-.33.3-.44.5s-.09.34-.17.5a103.24,103.24,0,0,0,0,103,4.91,4.91,0,0,0,.17.5,7,7,0,0,0,.64.8,104.62,104.62,0,0,0,36.92,36.8c.19.13.3.33.5.44a6.07,6.07,0,0,0,.7.29,103.29,103.29,0,0,0,102.61,0A5.28,5.28,0,0,0,172,482c.2-.11.32-.31.51-.44a104.7,104.7,0,0,0,36.92-36.8,7,7,0,0,0,.64-.8c.09-.16.09-.34.17-.5a103.24,103.24,0,0,0,0-103c-.08-.16-.08-.34-.17-.5s-.31-.31-.44-.5a104.53,104.53,0,0,0-37.12-37.12c-.19-.13-.31-.33-.51-.44a3.89,3.89,0,0,0-.5-.18A103.41,103.41,0,0,0,80,296V272H272V416H242.4a8,8,0,1,0,0,16H328a8,8,0,0,0,0-16H288V272H392a56.07,56.07,0,0,1,56,56v40.63a8,8,0,0,0,4,6.92A55.93,55.93,0,1,1,424,368a8,8,0,0,0,0-16,72.14,72.14,0,1,0,40,12.2ZM128,192a8,8,0,0,1,16,0v64H128Zm63.81,149.3-6.53,3.77A8,8,0,1,0,193.19,359l.09-.05,6.53-3.77a87.13,87.13,0,0,1,7.78,28.8H200a8,8,0,0,0,0,16h7.59a87.13,87.13,0,0,1-7.78,28.8L193.28,425a8,8,0,0,0-8,13.86l6.53,3.77a89.27,89.27,0,0,1-21.11,21.11l-3.77-6.53A8,8,0,1,0,153,465.11l0,.09,3.77,6.53A87.23,87.23,0,0,1,128,479.59V472a8,8,0,0,0-16,0v7.59a87.11,87.11,0,0,1-28.84-7.78l3.77-6.53a8,8,0,0,0-13.86-8l-3.77,6.53A89.27,89.27,0,0,1,48.19,442.7l6.53-3.77A8,8,0,1,0,46.81,425l-.09.05-6.53,3.77A87.11,87.11,0,0,1,32.41,400H40a8,8,0,0,0,0-16H32.41a87.13,87.13,0,0,1,7.78-28.8L46.72,359a8,8,0,1,0,8.09-13.8l-.09-.06-6.53-3.77A89.27,89.27,0,0,1,69.3,320.23l3.77,6.53A8,8,0,0,0,87,318.85l0-.09-3.77-6.53A87.17,87.17,0,0,1,112,304.41V312a8,8,0,0,0,16,0v-7.59a87.11,87.11,0,0,1,28.84,7.78l-3.77,6.53a8,8,0,0,0,13.81,8.09.41.41,0,0,1,.05-.09l3.77-6.53a89.27,89.27,0,0,1,21.11,21.11ZM160,256V240h24a16,16,0,0,1,16,16Zm200,0V192h16v64Z" transform="translate(-16.03 -128)"/><path class="cls-6" d="M408,320V296a8,8,0,0,0-16,0v24a8,8,0,0,0,16,0Z" transform="translate(-16.03 -128)"/><path class="cls-7" d="M376,320V296a8,8,0,0,0-16,0v24a8,8,0,0,0,16,0Z" transform="translate(-16.03 -128)"/><path class="cls-8" d="M336,288a8,8,0,0,0-8,8v24a8,8,0,0,0,16,0V296A8,8,0,0,0,336,288Z" transform="translate(-16.03 -128)"/><path class="cls-9" d="M256,320V296a8,8,0,0,0-16,0v24a8,8,0,0,0,16,0Z" transform="translate(-16.03 -128)"/></svg>